<svg xmlns="http://www.w3.org/2000/svg" width="14" height="14" viewBox="0 0 14 14"><g><g><path fill="#fff" d="M9.73 11.897c1.298-.748 2.222-2.046 2.53-3.564-.682-.154-1.298-.242-1.936-.242-.44 0-.925.044-1.387.132.396 1.188.638 2.42.793 3.674zM7 12.646c.594 0 1.144-.066 1.694-.264a17.472 17.472 0 0 0-.792-3.895c-1.672.572-3.058 1.672-4.048 3.168.968.639 2.024.99 3.146.99zm3.323-5.655c.66 0 1.342.11 2.046.286 0-1.078-.352-2.112-.946-3.015-.99.837-2.09 1.54-3.213 2.047.132.286.242.594.374.88.594-.11 1.189-.198 1.739-.198zM7 1.93c-.484 0-.924.065-1.386.197a21.231 21.231 0 0 1 2.134 3.19 11.898 11.898 0 0 0 2.97-1.892A5.374 5.374 0 0 0 7.002 1.93zm-2.464.593a5.512 5.512 0 0 0-2.86 3.96h.725c1.453 0 2.927-.241 4.357-.77a17.727 17.727 0 0 0-2.222-3.19zm8.911 4.753a6.442 6.442 0 0 1-6.447 6.447c-3.564 0-6.425-2.883-6.425-6.447A6.418 6.418 0 0 1 7.001.852c3.565 0 6.447 2.882 6.447 6.425zm-6.227-.572c-1.584.572-3.19.88-4.819.88-.242 0-.484-.044-.748-.044.022 1.276.55 2.464 1.409 3.366A8.694 8.694 0 0 1 7.55 7.475a5.794 5.794 0 0 1-.33-.77z"/></g></g></svg>