<svg xmlns="http://www.w3.org/2000/svg" width="16" height="12" viewBox="0 0 16 12"><g><g><path fill="#fff" d="M13.954 6.205c.897 0 1.495-.322 1.816-.69-.528.069-1.333 0-1.747-.184.874-.07 1.449-.483 1.701-1.035-.321.207-1.31.414-1.862.207 0-.115-.046-.23-.07-.322-.413-1.54-1.839-2.736-3.287-2.598.138-.046.253-.092.39-.138.115-.046 1.058-.207.943-.53-.115-.298-1.287.208-1.54.277.299-.115.804-.276.827-.621-.436.046-.85.253-1.195.598.138-.184.207-.3.207-.506-1.15.782-1.863 2.276-2.392 3.771-.46-.414-.828-.759-1.196-.966a36.186 36.186 0 0 0-3.978-1.724c-.046.62.276 1.402 1.311 1.931-.207-.023-.62.046-.943.138.115.69.575 1.288 1.748 1.518-.552.046-.828.184-1.08.414.252.506.873 1.08 1.93.966-1.195.528-.482 1.494.46 1.31C4.343 9.723 1.745 9.608.25 8.205c3.932 5.335 12.417 3.128 13.705-2z"/></g></g></svg>